<?xml version="1.0" encoding="utf-8" standalone="no"?>
<!DOCTYPE svg PUBLIC "-//W3C//DTD SVG 1.1//EN"
  "http://www.w3.org/Graphics/SVG/1.1/DTD/svg11.dtd">
<svg xmlns:xlink="http://www.w3.org/1999/xlink" width="572.4pt" height="236.57267pt" viewBox="0 0 572.4 236.57267" xmlns="http://www.w3.org/2000/svg" version="1.1">
 <metadata>
  <rdf:RDF xmlns:dc="http://purl.org/dc/elements/1.1/" xmlns:cc="http://creativecommons.org/ns#" xmlns:rdf="http://www.w3.org/1999/02/22-rdf-syntax-ns#">
   <cc:Work>
    <dc:type rdf:resource="http://purl.org/dc/dcmitype/StillImage"/>
    <dc:date>2026-04-13T15:43:14.592299</dc:date>
    <dc:format>image/svg+xml</dc:format>
    <dc:creator>
     <cc:Agent>
      <dc:title>Matplotlib v3.9.4, https://matplotlib.org/</dc:title>
     </cc:Agent>
    </dc:creator>
   </cc:Work>
  </rdf:RDF>
 </metadata>
 <defs>
  <style type="text/css">*{stroke-linejoin: round; stroke-linecap: butt}</style>
 </defs>
 <g id="figure_1">
  <g id="patch_1">
   <path d="M 0 236.57267 
L 572.4 236.57267 
L 572.4 0 
L 0 0 
z
" style="fill: #ffffff"/>
  </g>
  <g id="axes_1">
   <g id="patch_2">
    <path d="M 7.2 229.37267 
L 350.4 229.37267 
L 350.4 22.318125 
L 7.2 22.318125 
z
" style="fill: #ffffff"/>
   </g>
   <g id="Quiver_1">
    <path d="M 164.618182 173.503398 
L 143.976545 173.503398 
L 146.550545 176.077398 
L 136.254545 172.645398 
L 146.550545 169.213398 
L 143.976545 171.787398 
L 164.618182 171.787398 
L 164.618182 173.503398 
" clip-path="url(#p94a28856c0)" style="fill: #808080; fill-opacity: 0.6"/>
    <path d="M 135.647848 172.0387 
L 158.551206 149.135342 
L 154.91102 149.135342 
L 164.618182 144.281761 
L 159.764601 153.988923 
L 159.764601 150.348738 
L 136.861243 173.252095 
L 135.647848 172.0387 
" clip-path="url(#p94a28856c0)" style="fill: #808080; fill-opacity: 0.6"/>
    <path d="M 165.224879 143.675064 
L 188.128237 166.578422 
L 188.128237 162.938236 
L 192.981818 172.645398 
L 183.274656 167.791817 
L 186.914842 167.791817 
L 164.011484 144.888459 
L 165.224879 143.675064 
" clip-path="url(#p94a28856c0)" style="fill: #808080; fill-opacity: 0.6"/>
    <path d="M 192.981818 171.787398 
L 213.623455 171.787398 
L 211.049455 169.213398 
L 221.345455 172.645398 
L 211.049455 176.077398 
L 213.623455 173.503398 
L 192.981818 173.503398 
L 192.981818 171.787398 
" clip-path="url(#p94a28856c0)" style="fill: #808080; fill-opacity: 0.6"/>
    <path d="M 220.738757 173.252095 
L 197.835399 150.348738 
L 197.835399 153.988923 
L 192.981818 144.281761 
L 202.68898 149.135342 
L 199.048794 149.135342 
L 221.952152 172.0387 
L 220.738757 173.252095 
" clip-path="url(#p94a28856c0)" style="fill: #808080; fill-opacity: 0.6"/>
    <path d="M 192.375121 144.888459 
L 169.471763 121.985101 
L 169.471763 125.625287 
L 164.618182 115.918125 
L 174.325344 120.771706 
L 170.685158 120.771706 
L 193.588516 143.675064 
L 192.375121 144.888459 
" clip-path="url(#p94a28856c0)" style="fill: #808080; fill-opacity: 0.6"/>
    <path d="M 165.224879 116.524823 
L 142.321522 139.42818 
L 145.961707 139.42818 
L 136.254545 144.281761 
L 141.108126 134.574599 
L 141.108126 138.214785 
L 164.011484 115.311427 
L 165.224879 116.524823 
" clip-path="url(#p94a28856c0)" style="fill: #808080; fill-opacity: 0.6"/>
    <path d="M 136.861243 144.888459 
L 113.957885 167.791817 
L 117.598071 167.791817 
L 107.890909 172.645398 
L 112.74449 162.938236 
L 112.74449 166.578422 
L 135.647848 143.675064 
L 136.861243 144.888459 
" clip-path="url(#p94a28856c0)" style="fill: #808080; fill-opacity: 0.6"/>
    <path d="M 107.890909 173.503398 
L 87.249273 173.503398 
L 89.823273 176.077398 
L 79.527273 172.645398 
L 89.823273 169.213398 
L 87.249273 171.787398 
L 107.890909 171.787398 
L 107.890909 173.503398 
" clip-path="url(#p94a28856c0)" style="fill: #808080; fill-opacity: 0.6"/>
    <path d="M 78.920575 172.0387 
L 101.823933 149.135342 
L 98.183747 149.135342 
L 107.890909 144.281761 
L 103.037328 153.988923 
L 103.037328 150.348738 
L 80.13397 173.252095 
L 78.920575 172.0387 
" clip-path="url(#p94a28856c0)" style="fill: #808080; fill-opacity: 0.6"/>
    <path d="M 107.284211 143.675064 
L 130.187569 120.771706 
L 126.547384 120.771706 
L 136.254545 115.918125 
L 131.400965 125.625287 
L 131.400965 121.985101 
L 108.497607 144.888459 
L 107.284211 143.675064 
" clip-path="url(#p94a28856c0)" style="fill: #808080; fill-opacity: 0.6"/>
    <path d="M 135.647848 115.311427 
L 158.551206 92.40807 
L 154.91102 92.40807 
L 164.618182 87.554489 
L 159.764601 97.261651 
L 159.764601 93.621465 
L 136.861243 116.524823 
L 135.647848 115.311427 
" clip-path="url(#p94a28856c0)" style="fill: #808080; fill-opacity: 0.6"/>
    <path d="M 165.224879 86.947791 
L 188.128237 109.851149 
L 188.128237 106.210963 
L 192.981818 115.918125 
L 183.274656 111.064544 
L 186.914842 111.064544 
L 164.011484 88.161186 
L 165.224879 86.947791 
" clip-path="url(#p94a28856c0)" style="fill: #808080; fill-opacity: 0.6"/>
    <path d="M 193.588516 115.311427 
L 216.491874 138.214785 
L 216.491874 134.574599 
L 221.345455 144.281761 
L 211.638293 139.42818 
L 215.278478 139.42818 
L 192.375121 116.524823 
L 193.588516 115.311427 
" clip-path="url(#p94a28856c0)" style="fill: #808080; fill-opacity: 0.6"/>
    <path d="M 221.952152 143.675064 
L 244.85551 166.578422 
L 244.85551 162.938236 
L 249.709091 172.645398 
L 240.001929 167.791817 
L 243.642115 167.791817 
L 220.738757 144.888459 
L 221.952152 143.675064 
" clip-path="url(#p94a28856c0)" style="fill: #808080; fill-opacity: 0.6"/>
    <path d="M 249.709091 171.787398 
L 270.350727 171.787398 
L 267.776727 169.213398 
L 278.072727 172.645398 
L 267.776727 176.077398 
L 270.350727 173.503398 
L 249.709091 173.503398 
L 249.709091 171.787398 
" clip-path="url(#p94a28856c0)" style="fill: #808080; fill-opacity: 0.6"/>
    <path d="M 277.46603 173.252095 
L 254.562672 150.348738 
L 254.562672 153.988923 
L 249.709091 144.281761 
L 259.416253 149.135342 
L 255.776067 149.135342 
L 278.679425 172.0387 
L 277.46603 173.252095 
" clip-path="url(#p94a28856c0)" style="fill: #808080; fill-opacity: 0.6"/>
    <path d="M 249.102393 144.888459 
L 226.199035 121.985101 
L 226.199035 125.625287 
L 221.345455 115.918125 
L 231.052616 120.771706 
L 227.412431 120.771706 
L 250.315789 143.675064 
L 249.102393 144.888459 
" clip-path="url(#p94a28856c0)" style="fill: #808080; fill-opacity: 0.6"/>
    <path d="M 220.738757 116.524823 
L 197.835399 93.621465 
L 197.835399 97.261651 
L 192.981818 87.554489 
L 202.68898 92.40807 
L 199.048794 92.40807 
L 221.952152 115.311427 
L 220.738757 116.524823 
" clip-path="url(#p94a28856c0)" style="fill: #808080; fill-opacity: 0.6"/>
    <path d="M 192.375121 88.161186 
L 169.471763 65.257828 
L 169.471763 68.898014 
L 164.618182 59.190852 
L 174.325344 64.044433 
L 170.685158 64.044433 
L 193.588516 86.947791 
L 192.375121 88.161186 
" clip-path="url(#p94a28856c0)" style="fill: #808080; fill-opacity: 0.6"/>
    <path d="M 165.224879 59.79755 
L 142.321522 82.700908 
L 145.961707 82.700908 
L 136.254545 87.554489 
L 141.108126 77.847327 
L 141.108126 81.487512 
L 164.011484 58.584155 
L 165.224879 59.79755 
" clip-path="url(#p94a28856c0)" style="fill: #808080; fill-opacity: 0.6"/>
    <path d="M 136.861243 88.161186 
L 113.957885 111.064544 
L 117.598071 111.064544 
L 107.890909 115.918125 
L 112.74449 106.210963 
L 112.74449 109.851149 
L 135.647848 86.947791 
L 136.861243 88.161186 
" clip-path="url(#p94a28856c0)" style="fill: #808080; fill-opacity: 0.6"/>
    <path d="M 108.497607 116.524823 
L 85.594249 139.42818 
L 89.234435 139.42818 
L 79.527273 144.281761 
L 84.380854 134.574599 
L 84.380854 138.214785 
L 107.284211 115.311427 
L 108.497607 116.524823 
" clip-path="url(#p94a28856c0)" style="fill: #808080; fill-opacity: 0.6"/>
    <path d="M 80.13397 144.888459 
L 57.230613 167.791817 
L 60.870798 167.791817 
L 51.163636 172.645398 
L 56.017217 162.938236 
L 56.017217 166.578422 
L 78.920575 143.675064 
L 80.13397 144.888459 
" clip-path="url(#p94a28856c0)" style="fill: #808080; fill-opacity: 0.6"/>
    <path d="M 51.163636 173.503398 
L 30.522 173.503398 
L 33.096 176.077398 
L 22.8 172.645398 
L 33.096 169.213398 
L 30.522 171.787398 
L 51.163636 171.787398 
L 51.163636 173.503398 
" clip-path="url(#p94a28856c0)" style="fill: #808080; fill-opacity: 0.6"/>
    <path d="M 22.193302 172.0387 
L 45.09666 149.135342 
L 41.456474 149.135342 
L 51.163636 144.281761 
L 46.310055 153.988923 
L 46.310055 150.348738 
L 23.406698 173.252095 
L 22.193302 172.0387 
" clip-path="url(#p94a28856c0)" style="fill: #808080; fill-opacity: 0.6"/>
    <path d="M 50.556939 143.675064 
L 73.460297 120.771706 
L 69.820111 120.771706 
L 79.527273 115.918125 
L 74.673692 125.625287 
L 74.673692 121.985101 
L 51.770334 144.888459 
L 50.556939 143.675064 
" clip-path="url(#p94a28856c0)" style="fill: #808080; fill-opacity: 0.6"/>
    <path d="M 78.920575 115.311427 
L 101.823933 92.40807 
L 98.183747 92.40807 
L 107.890909 87.554489 
L 103.037328 97.261651 
L 103.037328 93.621465 
L 80.13397 116.524823 
L 78.920575 115.311427 
" clip-path="url(#p94a28856c0)" style="fill: #808080; fill-opacity: 0.6"/>
    <path d="M 107.284211 86.947791 
L 130.187569 64.044433 
L 126.547384 64.044433 
L 136.254545 59.190852 
L 131.400965 68.898014 
L 131.400965 65.257828 
L 108.497607 88.161186 
L 107.284211 86.947791 
" clip-path="url(#p94a28856c0)" style="fill: #808080; fill-opacity: 0.6"/>
    <path d="M 135.647848 58.584155 
L 158.551206 35.680797 
L 154.91102 35.680797 
L 164.618182 30.827216 
L 159.764601 40.534378 
L 159.764601 36.894192 
L 136.861243 59.79755 
L 135.647848 58.584155 
" clip-path="url(#p94a28856c0)" style="fill: #808080; fill-opacity: 0.6"/>
    <path d="M 165.224879 30.220518 
L 188.128237 53.123876 
L 188.128237 49.48369 
L 192.981818 59.190852 
L 183.274656 54.337271 
L 186.914842 54.337271 
L 164.011484 31.433914 
L 165.224879 30.220518 
" clip-path="url(#p94a28856c0)" style="fill: #808080; fill-opacity: 0.6"/>
    <path d="M 193.588516 58.584155 
L 216.491874 81.487512 
L 216.491874 77.847327 
L 221.345455 87.554489 
L 211.638293 82.700908 
L 215.278478 82.700908 
L 192.375121 59.79755 
L 193.588516 58.584155 
" clip-path="url(#p94a28856c0)" style="fill: #808080; fill-opacity: 0.6"/>
    <path d="M 221.952152 86.947791 
L 244.85551 109.851149 
L 244.85551 106.210963 
L 249.709091 115.918125 
L 240.001929 111.064544 
L 243.642115 111.064544 
L 220.738757 88.161186 
L 221.952152 86.947791 
" clip-path="url(#p94a28856c0)" style="fill: #808080; fill-opacity: 0.6"/>
    <path d="M 250.315789 115.311427 
L 273.219146 138.214785 
L 273.219146 134.574599 
L 278.072727 144.281761 
L 268.365565 139.42818 
L 272.005751 139.42818 
L 249.102393 116.524823 
L 250.315789 115.311427 
" clip-path="url(#p94a28856c0)" style="fill: #808080; fill-opacity: 0.6"/>
    <path d="M 278.679425 143.675064 
L 301.582783 166.578422 
L 301.582783 162.938236 
L 306.436364 172.645398 
L 296.729202 167.791817 
L 300.369387 167.791817 
L 277.46603 144.888459 
L 278.679425 143.675064 
" clip-path="url(#p94a28856c0)" style="fill: #808080; fill-opacity: 0.6"/>
    <path d="M 306.436364 171.787398 
L 327.078 171.787398 
L 324.504 169.213398 
L 334.8 172.645398 
L 324.504 176.077398 
L 327.078 173.503398 
L 306.436364 173.503398 
L 306.436364 171.787398 
" clip-path="url(#p94a28856c0)" style="fill: #808080; fill-opacity: 0.6"/>
    <path d="M 334.193302 173.252095 
L 311.289945 150.348738 
L 311.289945 153.988923 
L 306.436364 144.281761 
L 316.143526 149.135342 
L 312.50334 149.135342 
L 335.406698 172.0387 
L 334.193302 173.252095 
" clip-path="url(#p94a28856c0)" style="fill: #808080; fill-opacity: 0.6"/>
    <path d="M 305.829666 144.888459 
L 282.926308 121.985101 
L 282.926308 125.625287 
L 278.072727 115.918125 
L 287.779889 120.771706 
L 284.139703 120.771706 
L 307.043061 143.675064 
L 305.829666 144.888459 
" clip-path="url(#p94a28856c0)" style="fill: #808080; fill-opacity: 0.6"/>
    <path d="M 277.46603 116.524823 
L 254.562672 93.621465 
L 254.562672 97.261651 
L 249.709091 87.554489 
L 259.416253 92.40807 
L 255.776067 92.40807 
L 278.679425 115.311427 
L 277.46603 116.524823 
" clip-path="url(#p94a28856c0)" style="fill: #808080; fill-opacity: 0.6"/>
   </g>
   <g id="matplotlib.axis_1">
    <g id="xtick_1">
     <g id="line2d_1">
      <path d="M 22.8 229.37267 
L 22.8 22.318125 
" clip-path="url(#p94a28856c0)" style="fill: none; stroke-dasharray: 0.8,1.32; stroke-dashoffset: 0; stroke: #b0b0b0; stroke-opacity: 0.5; stroke-width: 0.8"/>
     </g>
    </g>
    <g id="xtick_2">
     <g id="line2d_2">
      <path d="M 51.163636 229.37267 
L 51.163636 22.318125 
" clip-path="url(#p94a28856c0)" style="fill: none; stroke-dasharray: 0.8,1.32; stroke-dashoffset: 0; stroke: #b0b0b0; stroke-opacity: 0.5; stroke-width: 0.8"/>
     </g>
    </g>
    <g id="xtick_3">
     <g id="line2d_3">
      <path d="M 79.527273 229.37267 
L 79.527273 22.318125 
" clip-path="url(#p94a28856c0)" style="fill: none; stroke-dasharray: 0.8,1.32; stroke-dashoffset: 0; stroke: #b0b0b0; stroke-opacity: 0.5; stroke-width: 0.8"/>
     </g>
    </g>
    <g id="xtick_4">
     <g id="line2d_4">
      <path d="M 107.890909 229.37267 
L 107.890909 22.318125 
" clip-path="url(#p94a28856c0)" style="fill: none; stroke-dasharray: 0.8,1.32; stroke-dashoffset: 0; stroke: #b0b0b0; stroke-opacity: 0.5; stroke-width: 0.8"/>
     </g>
    </g>
    <g id="xtick_5">
     <g id="line2d_5">
      <path d="M 136.254545 229.37267 
L 136.254545 22.318125 
" clip-path="url(#p94a28856c0)" style="fill: none; stroke-dasharray: 0.8,1.32; stroke-dashoffset: 0; stroke: #b0b0b0; stroke-opacity: 0.5; stroke-width: 0.8"/>
     </g>
    </g>
    <g id="xtick_6">
     <g id="line2d_6">
      <path d="M 164.618182 229.37267 
L 164.618182 22.318125 
" clip-path="url(#p94a28856c0)" style="fill: none; stroke-dasharray: 0.8,1.32; stroke-dashoffset: 0; stroke: #b0b0b0; stroke-opacity: 0.5; stroke-width: 0.8"/>
     </g>
    </g>
    <g id="xtick_7">
     <g id="line2d_7">
      <path d="M 192.981818 229.37267 
L 192.981818 22.318125 
" clip-path="url(#p94a28856c0)" style="fill: none; stroke-dasharray: 0.8,1.32; stroke-dashoffset: 0; stroke: #b0b0b0; stroke-opacity: 0.5; stroke-width: 0.8"/>
     </g>
    </g>
    <g id="xtick_8">
     <g id="line2d_8">
      <path d="M 221.345455 229.37267 
L 221.345455 22.318125 
" clip-path="url(#p94a28856c0)" style="fill: none; stroke-dasharray: 0.8,1.32; stroke-dashoffset: 0; stroke: #b0b0b0; stroke-opacity: 0.5; stroke-width: 0.8"/>
     </g>
    </g>
    <g id="xtick_9">
     <g id="line2d_9">
      <path d="M 249.709091 229.37267 
L 249.709091 22.318125 
" clip-path="url(#p94a28856c0)" style="fill: none; stroke-dasharray: 0.8,1.32; stroke-dashoffset: 0; stroke: #b0b0b0; stroke-opacity: 0.5; stroke-width: 0.8"/>
     </g>
    </g>
    <g id="xtick_10">
     <g id="line2d_10">
      <path d="M 278.072727 229.37267 
L 278.072727 22.318125 
" clip-path="url(#p94a28856c0)" style="fill: none; stroke-dasharray: 0.8,1.32; stroke-dashoffset: 0; stroke: #b0b0b0; stroke-opacity: 0.5; stroke-width: 0.8"/>
     </g>
    </g>
    <g id="xtick_11">
     <g id="line2d_11">
      <path d="M 306.436364 229.37267 
L 306.436364 22.318125 
" clip-path="url(#p94a28856c0)" style="fill: none; stroke-dasharray: 0.8,1.32; stroke-dashoffset: 0; stroke: #b0b0b0; stroke-opacity: 0.5; stroke-width: 0.8"/>
     </g>
    </g>
    <g id="xtick_12">
     <g id="line2d_12">
      <path d="M 334.8 229.37267 
L 334.8 22.318125 
" clip-path="url(#p94a28856c0)" style="fill: none; stroke-dasharray: 0.8,1.32; stroke-dashoffset: 0; stroke: #b0b0b0; stroke-opacity: 0.5; stroke-width: 0.8"/>
     </g>
    </g>
   </g>
   <g id="matplotlib.axis_2">
    <g id="ytick_1">
     <g id="line2d_13">
      <path d="M 7.2 229.37267 
L 350.4 229.37267 
" clip-path="url(#p94a28856c0)" style="fill: none; stroke-dasharray: 0.8,1.32; stroke-dashoffset: 0; stroke: #b0b0b0; stroke-opacity: 0.5; stroke-width: 0.8"/>
     </g>
    </g>
    <g id="ytick_2">
     <g id="line2d_14">
      <path d="M 7.2 201.009034 
L 350.4 201.009034 
" clip-path="url(#p94a28856c0)" style="fill: none; stroke-dasharray: 0.8,1.32; stroke-dashoffset: 0; stroke: #b0b0b0; stroke-opacity: 0.5; stroke-width: 0.8"/>
     </g>
    </g>
    <g id="ytick_3">
     <g id="line2d_15">
      <path d="M 7.2 172.645398 
L 350.4 172.645398 
" clip-path="url(#p94a28856c0)" style="fill: none; stroke-dasharray: 0.8,1.32; stroke-dashoffset: 0; stroke: #b0b0b0; stroke-opacity: 0.5; stroke-width: 0.8"/>
     </g>
    </g>
    <g id="ytick_4">
     <g id="line2d_16">
      <path d="M 7.2 144.281761 
L 350.4 144.281761 
" clip-path="url(#p94a28856c0)" style="fill: none; stroke-dasharray: 0.8,1.32; stroke-dashoffset: 0; stroke: #b0b0b0; stroke-opacity: 0.5; stroke-width: 0.8"/>
     </g>
    </g>
    <g id="ytick_5">
     <g id="line2d_17">
      <path d="M 7.2 115.918125 
L 350.4 115.918125 
" clip-path="url(#p94a28856c0)" style="fill: none; stroke-dasharray: 0.8,1.32; stroke-dashoffset: 0; stroke: #b0b0b0; stroke-opacity: 0.5; stroke-width: 0.8"/>
     </g>
    </g>
    <g id="ytick_6">
     <g id="line2d_18">
      <path d="M 7.2 87.554489 
L 350.4 87.554489 
" clip-path="url(#p94a28856c0)" style="fill: none; stroke-dasharray: 0.8,1.32; stroke-dashoffset: 0; stroke: #b0b0b0; stroke-opacity: 0.5; stroke-width: 0.8"/>
     </g>
    </g>
    <g id="ytick_7">
     <g id="line2d_19">
      <path d="M 7.2 59.190852 
L 350.4 59.190852 
" clip-path="url(#p94a28856c0)" style="fill: none; stroke-dasharray: 0.8,1.32; stroke-dashoffset: 0; stroke: #b0b0b0; stroke-opacity: 0.5; stroke-width: 0.8"/>
     </g>
    </g>
    <g id="ytick_8">
     <g id="line2d_20">
      <path d="M 7.2 30.827216 
L 350.4 30.827216 
" clip-path="url(#p94a28856c0)" style="fill: none; stroke-dasharray: 0.8,1.32; stroke-dashoffset: 0; stroke: #b0b0b0; stroke-opacity: 0.5; stroke-width: 0.8"/>
     </g>
    </g>
   </g>
   <g id="PathCollection_1">
    <defs>
     <path id="C0_0_2649d00cd7" d="M 0 3.162278 
C 0.838646 3.162278 1.643056 2.82908 2.236068 2.236068 
C 2.82908 1.643056 3.162278 0.838646 3.162278 -0 
C 3.162278 -0.838646 2.82908 -1.643056 2.236068 -2.236068 
C 1.643056 -2.82908 0.838646 -3.162278 0 -3.162278 
C -0.838646 -3.162278 -1.643056 -2.82908 -2.236068 -2.236068 
C -2.82908 -1.643056 -3.162278 -0.838646 -3.162278 0 
C -3.162278 0.838646 -2.82908 1.643056 -2.236068 2.236068 
C -1.643056 2.82908 -0.838646 3.162278 0 3.162278 
z
"/>
    </defs>
    <g clip-path="url(#p94a28856c0)">
     <use xlink:href="#C0_0_2649d00cd7" x="164.618182" y="172.645398" style="fill: #5302a3; stroke: #5302a3"/>
    </g>
    <g clip-path="url(#p94a28856c0)">
     <use xlink:href="#C0_0_2649d00cd7" x="136.254545" y="172.645398" style="fill: #8b0aa5; stroke: #8b0aa5"/>
    </g>
    <g clip-path="url(#p94a28856c0)">
     <use xlink:href="#C0_0_2649d00cd7" x="164.618182" y="144.281761" style="fill: #8b0aa5; stroke: #8b0aa5"/>
    </g>
    <g clip-path="url(#p94a28856c0)">
     <use xlink:href="#C0_0_2649d00cd7" x="192.981818" y="172.645398" style="fill: #8b0aa5; stroke: #8b0aa5"/>
    </g>
    <g clip-path="url(#p94a28856c0)">
     <use xlink:href="#C0_0_2649d00cd7" x="221.345455" y="172.645398" style="fill: #b83289; stroke: #b83289"/>
    </g>
    <g clip-path="url(#p94a28856c0)">
     <use xlink:href="#C0_0_2649d00cd7" x="192.981818" y="144.281761" style="fill: #b83289; stroke: #b83289"/>
    </g>
    <g clip-path="url(#p94a28856c0)">
     <use xlink:href="#C0_0_2649d00cd7" x="164.618182" y="115.918125" style="fill: #b83289; stroke: #b83289"/>
    </g>
    <g clip-path="url(#p94a28856c0)">
     <use xlink:href="#C0_0_2649d00cd7" x="136.254545" y="144.281761" style="fill: #b83289; stroke: #b83289"/>
    </g>
    <g clip-path="url(#p94a28856c0)">
     <use xlink:href="#C0_0_2649d00cd7" x="107.890909" y="172.645398" style="fill: #b83289; stroke: #b83289"/>
    </g>
    <g clip-path="url(#p94a28856c0)">
     <use xlink:href="#C0_0_2649d00cd7" x="79.527273" y="172.645398" style="fill: #db5c68; stroke: #db5c68"/>
    </g>
    <g clip-path="url(#p94a28856c0)">
     <use xlink:href="#C0_0_2649d00cd7" x="107.890909" y="144.281761" style="fill: #db5c68; stroke: #db5c68"/>
    </g>
    <g clip-path="url(#p94a28856c0)">
     <use xlink:href="#C0_0_2649d00cd7" x="136.254545" y="115.918125" style="fill: #db5c68; stroke: #db5c68"/>
    </g>
    <g clip-path="url(#p94a28856c0)">
     <use xlink:href="#C0_0_2649d00cd7" x="164.618182" y="87.554489" style="fill: #db5c68; stroke: #db5c68"/>
    </g>
    <g clip-path="url(#p94a28856c0)">
     <use xlink:href="#C0_0_2649d00cd7" x="192.981818" y="115.918125" style="fill: #db5c68; stroke: #db5c68"/>
    </g>
    <g clip-path="url(#p94a28856c0)">
     <use xlink:href="#C0_0_2649d00cd7" x="221.345455" y="144.281761" style="fill: #db5c68; stroke: #db5c68"/>
    </g>
    <g clip-path="url(#p94a28856c0)">
     <use xlink:href="#C0_0_2649d00cd7" x="249.709091" y="172.645398" style="fill: #db5c68; stroke: #db5c68"/>
    </g>
    <g clip-path="url(#p94a28856c0)">
     <use xlink:href="#C0_0_2649d00cd7" x="278.072727" y="172.645398" style="fill: #f48849; stroke: #f48849"/>
    </g>
    <g clip-path="url(#p94a28856c0)">
     <use xlink:href="#C0_0_2649d00cd7" x="249.709091" y="144.281761" style="fill: #f48849; stroke: #f48849"/>
    </g>
    <g clip-path="url(#p94a28856c0)">
     <use xlink:href="#C0_0_2649d00cd7" x="221.345455" y="115.918125" style="fill: #f48849; stroke: #f48849"/>
    </g>
    <g clip-path="url(#p94a28856c0)">
     <use xlink:href="#C0_0_2649d00cd7" x="192.981818" y="87.554489" style="fill: #f48849; stroke: #f48849"/>
    </g>
    <g clip-path="url(#p94a28856c0)">
     <use xlink:href="#C0_0_2649d00cd7" x="164.618182" y="59.190852" style="fill: #f48849; stroke: #f48849"/>
    </g>
    <g clip-path="url(#p94a28856c0)">
     <use xlink:href="#C0_0_2649d00cd7" x="136.254545" y="87.554489" style="fill: #f48849; stroke: #f48849"/>
    </g>
    <g clip-path="url(#p94a28856c0)">
     <use xlink:href="#C0_0_2649d00cd7" x="107.890909" y="115.918125" style="fill: #f48849; stroke: #f48849"/>
    </g>
    <g clip-path="url(#p94a28856c0)">
     <use xlink:href="#C0_0_2649d00cd7" x="79.527273" y="144.281761" style="fill: #f48849; stroke: #f48849"/>
    </g>
    <g clip-path="url(#p94a28856c0)">
     <use xlink:href="#C0_0_2649d00cd7" x="51.163636" y="172.645398" style="fill: #f48849; stroke: #f48849"/>
    </g>
    <g clip-path="url(#p94a28856c0)">
     <use xlink:href="#C0_0_2649d00cd7" x="22.8" y="172.645398" style="fill: #febd2a; stroke: #febd2a"/>
    </g>
    <g clip-path="url(#p94a28856c0)">
     <use xlink:href="#C0_0_2649d00cd7" x="51.163636" y="144.281761" style="fill: #febd2a; stroke: #febd2a"/>
    </g>
    <g clip-path="url(#p94a28856c0)">
     <use xlink:href="#C0_0_2649d00cd7" x="79.527273" y="115.918125" style="fill: #febd2a; stroke: #febd2a"/>
    </g>
    <g clip-path="url(#p94a28856c0)">
     <use xlink:href="#C0_0_2649d00cd7" x="107.890909" y="87.554489" style="fill: #febd2a; stroke: #febd2a"/>
    </g>
    <g clip-path="url(#p94a28856c0)">
     <use xlink:href="#C0_0_2649d00cd7" x="136.254545" y="59.190852" style="fill: #febd2a; stroke: #febd2a"/>
    </g>
    <g clip-path="url(#p94a28856c0)">
     <use xlink:href="#C0_0_2649d00cd7" x="164.618182" y="30.827216" style="fill: #febd2a; stroke: #febd2a"/>
    </g>
    <g clip-path="url(#p94a28856c0)">
     <use xlink:href="#C0_0_2649d00cd7" x="192.981818" y="59.190852" style="fill: #febd2a; stroke: #febd2a"/>
    </g>
    <g clip-path="url(#p94a28856c0)">
     <use xlink:href="#C0_0_2649d00cd7" x="221.345455" y="87.554489" style="fill: #febd2a; stroke: #febd2a"/>
    </g>
    <g clip-path="url(#p94a28856c0)">
     <use xlink:href="#C0_0_2649d00cd7" x="249.709091" y="115.918125" style="fill: #febd2a; stroke: #febd2a"/>
    </g>
    <g clip-path="url(#p94a28856c0)">
     <use xlink:href="#C0_0_2649d00cd7" x="278.072727" y="144.281761" style="fill: #febd2a; stroke: #febd2a"/>
    </g>
    <g clip-path="url(#p94a28856c0)">
     <use xlink:href="#C0_0_2649d00cd7" x="306.436364" y="172.645398" style="fill: #febd2a; stroke: #febd2a"/>
    </g>
    <g clip-path="url(#p94a28856c0)">
     <use xlink:href="#C0_0_2649d00cd7" x="334.8" y="172.645398" style="fill: #f0f921; stroke: #f0f921"/>
    </g>
    <g clip-path="url(#p94a28856c0)">
     <use xlink:href="#C0_0_2649d00cd7" x="306.436364" y="144.281761" style="fill: #f0f921; stroke: #f0f921"/>
    </g>
    <g clip-path="url(#p94a28856c0)">
     <use xlink:href="#C0_0_2649d00cd7" x="278.072727" y="115.918125" style="fill: #f0f921; stroke: #f0f921"/>
    </g>
    <g clip-path="url(#p94a28856c0)">
     <use xlink:href="#C0_0_2649d00cd7" x="249.709091" y="87.554489" style="fill: #f0f921; stroke: #f0f921"/>
    </g>
   </g>
   <g id="patch_3">
    <path d="M 7.2 229.37267 
L 7.2 22.318125 
" style="fill: none; stroke: #000000; stroke-width: 0.8; stroke-linejoin: miter; stroke-linecap: square"/>
   </g>
   <g id="patch_4">
    <path d="M 350.4 229.37267 
L 350.4 22.318125 
" style="fill: none; stroke: #000000; stroke-width: 0.8; stroke-linejoin: miter; stroke-linecap: square"/>
   </g>
   <g id="patch_5">
    <path d="M 7.2 229.37267 
L 350.4 229.37267 
" style="fill: none; stroke: #000000; stroke-width: 0.8; stroke-linejoin: miter; stroke-linecap: square"/>
   </g>
   <g id="patch_6">
    <path d="M 7.2 22.318125 
L 350.4 22.318125 
" style="fill: none; stroke: #000000; stroke-width: 0.8; stroke-linejoin: miter; stroke-linecap: square"/>
   </g>
   <g id="line2d_21">
    <path d="M 164.618182 201.009034 
L 164.618182 115.918125 
" clip-path="url(#p94a28856c0)" style="fill: none; stroke: #ff0000; stroke-width: 3; stroke-linecap: square"/>
   </g>
   <g id="line2d_22">
    <path d="M 164.618182 115.918125 
L 136.254545 115.918125 
" clip-path="url(#p94a28856c0)" style="fill: none; stroke: #ff0000; stroke-width: 3; stroke-linecap: square"/>
   </g>
   <g id="text_1">
    <!-- 2D LRU Stack -->
    <g transform="translate(138.03375 16.318125) scale(0.12 -0.12)">
     <defs>
      <path id="DejaVuSans-32" d="M 1228 531 
L 3431 531 
L 3431 0 
L 469 0 
L 469 531 
Q 828 903 1448 1529 
Q 2069 2156 2228 2338 
Q 2531 2678 2651 2914 
Q 2772 3150 2772 3378 
Q 2772 3750 2511 3984 
Q 2250 4219 1831 4219 
Q 1534 4219 1204 4116 
Q 875 4013 500 3803 
L 500 4441 
Q 881 4594 1212 4672 
Q 1544 4750 1819 4750 
Q 2544 4750 2975 4387 
Q 3406 4025 3406 3419 
Q 3406 3131 3298 2873 
Q 3191 2616 2906 2266 
Q 2828 2175 2409 1742 
Q 1991 1309 1228 531 
z
" transform="scale(0.015625)"/>
      <path id="DejaVuSans-44" d="M 1259 4147 
L 1259 519 
L 2022 519 
Q 2988 519 3436 956 
Q 3884 1394 3884 2338 
Q 3884 3275 3436 3711 
Q 2988 4147 2022 4147 
L 1259 4147 
z
M 628 4666 
L 1925 4666 
Q 3281 4666 3915 4102 
Q 4550 3538 4550 2338 
Q 4550 1131 3912 565 
Q 3275 0 1925 0 
L 628 0 
L 628 4666 
z
" transform="scale(0.015625)"/>
      <path id="DejaVuSans-20" transform="scale(0.015625)"/>
      <path id="DejaVuSans-4c" d="M 628 4666 
L 1259 4666 
L 1259 531 
L 3531 531 
L 3531 0 
L 628 0 
L 628 4666 
z
" transform="scale(0.015625)"/>
      <path id="DejaVuSans-52" d="M 2841 2188 
Q 3044 2119 3236 1894 
Q 3428 1669 3622 1275 
L 4263 0 
L 3584 0 
L 2988 1197 
Q 2756 1666 2539 1819 
Q 2322 1972 1947 1972 
L 1259 1972 
L 1259 0 
L 628 0 
L 628 4666 
L 2053 4666 
Q 2853 4666 3247 4331 
Q 3641 3997 3641 3322 
Q 3641 2881 3436 2590 
Q 3231 2300 2841 2188 
z
M 1259 4147 
L 1259 2491 
L 2053 2491 
Q 2509 2491 2742 2702 
Q 2975 2913 2975 3322 
Q 2975 3731 2742 3939 
Q 2509 4147 2053 4147 
L 1259 4147 
z
" transform="scale(0.015625)"/>
      <path id="DejaVuSans-55" d="M 556 4666 
L 1191 4666 
L 1191 1831 
Q 1191 1081 1462 751 
Q 1734 422 2344 422 
Q 2950 422 3222 751 
Q 3494 1081 3494 1831 
L 3494 4666 
L 4128 4666 
L 4128 1753 
Q 4128 841 3676 375 
Q 3225 -91 2344 -91 
Q 1459 -91 1007 375 
Q 556 841 556 1753 
L 556 4666 
z
" transform="scale(0.015625)"/>
      <path id="DejaVuSans-53" d="M 3425 4513 
L 3425 3897 
Q 3066 4069 2747 4153 
Q 2428 4238 2131 4238 
Q 1616 4238 1336 4038 
Q 1056 3838 1056 3469 
Q 1056 3159 1242 3001 
Q 1428 2844 1947 2747 
L 2328 2669 
Q 3034 2534 3370 2195 
Q 3706 1856 3706 1288 
Q 3706 609 3251 259 
Q 2797 -91 1919 -91 
Q 1588 -91 1214 -16 
Q 841 59 441 206 
L 441 856 
Q 825 641 1194 531 
Q 1563 422 1919 422 
Q 2459 422 2753 634 
Q 3047 847 3047 1241 
Q 3047 1584 2836 1778 
Q 2625 1972 2144 2069 
L 1759 2144 
Q 1053 2284 737 2584 
Q 422 2884 422 3419 
Q 422 4038 858 4394 
Q 1294 4750 2059 4750 
Q 2388 4750 2728 4690 
Q 3069 4631 3425 4513 
z
" transform="scale(0.015625)"/>
      <path id="DejaVuSans-74" d="M 1172 4494 
L 1172 3500 
L 2356 3500 
L 2356 3053 
L 1172 3053 
L 1172 1153 
Q 1172 725 1289 603 
Q 1406 481 1766 481 
L 2356 481 
L 2356 0 
L 1766 0 
Q 1100 0 847 248 
Q 594 497 594 1153 
L 594 3053 
L 172 3053 
L 172 3500 
L 594 3500 
L 594 4494 
L 1172 4494 
z
" transform="scale(0.015625)"/>
      <path id="DejaVuSans-61" d="M 2194 1759 
Q 1497 1759 1228 1600 
Q 959 1441 959 1056 
Q 959 750 1161 570 
Q 1363 391 1709 391 
Q 2188 391 2477 730 
Q 2766 1069 2766 1631 
L 2766 1759 
L 2194 1759 
z
M 3341 1997 
L 3341 0 
L 2766 0 
L 2766 531 
Q 2569 213 2275 61 
Q 1981 -91 1556 -91 
Q 1019 -91 701 211 
Q 384 513 384 1019 
Q 384 1609 779 1909 
Q 1175 2209 1959 2209 
L 2766 2209 
L 2766 2266 
Q 2766 2663 2505 2880 
Q 2244 3097 1772 3097 
Q 1472 3097 1187 3025 
Q 903 2953 641 2809 
L 641 3341 
Q 956 3463 1253 3523 
Q 1550 3584 1831 3584 
Q 2591 3584 2966 3190 
Q 3341 2797 3341 1997 
z
" transform="scale(0.015625)"/>
      <path id="DejaVuSans-63" d="M 3122 3366 
L 3122 2828 
Q 2878 2963 2633 3030 
Q 2388 3097 2138 3097 
Q 1578 3097 1268 2742 
Q 959 2388 959 1747 
Q 959 1106 1268 751 
Q 1578 397 2138 397 
Q 2388 397 2633 464 
Q 2878 531 3122 666 
L 3122 134 
Q 2881 22 2623 -34 
Q 2366 -91 2075 -91 
Q 1284 -91 818 406 
Q 353 903 353 1747 
Q 353 2603 823 3093 
Q 1294 3584 2113 3584 
Q 2378 3584 2631 3529 
Q 2884 3475 3122 3366 
z
" transform="scale(0.015625)"/>
      <path id="DejaVuSans-6b" d="M 581 4863 
L 1159 4863 
L 1159 1991 
L 2875 3500 
L 3609 3500 
L 1753 1863 
L 3688 0 
L 2938 0 
L 1159 1709 
L 1159 0 
L 581 0 
L 581 4863 
z
" transform="scale(0.015625)"/>
     </defs>
     <use xlink:href="#DejaVuSans-32"/>
     <use xlink:href="#DejaVuSans-44" x="63.623047"/>
     <use xlink:href="#DejaVuSans-20" x="140.625"/>
     <use xlink:href="#DejaVuSans-4c" x="172.412109"/>
     <use xlink:href="#DejaVuSans-52" x="228.125"/>
     <use xlink:href="#DejaVuSans-55" x="297.607422"/>
     <use xlink:href="#DejaVuSans-20" x="370.800781"/>
     <use xlink:href="#DejaVuSans-53" x="402.587891"/>
     <use xlink:href="#DejaVuSans-74" x="466.064453"/>
     <use xlink:href="#DejaVuSans-61" x="505.273438"/>
     <use xlink:href="#DejaVuSans-63" x="566.552734"/>
     <use xlink:href="#DejaVuSans-6b" x="621.533203"/>
    </g>
   </g>
   <g id="text_2">
    <g id="patch_7">
     <path d="M 166.755057 168.995398 
L 172.481307 168.995398 
Q 173.831307 168.995398 173.831307 167.645398 
L 173.831307 158.935085 
Q 173.831307 157.585085 172.481307 157.585085 
L 166.755057 157.585085 
Q 165.405057 157.585085 165.405057 158.935085 
L 165.405057 167.645398 
Q 165.405057 168.995398 166.755057 168.995398 
z
" style="fill: #ffffff; opacity: 0.3"/>
    </g>
    <!-- 1 -->
    <g style="opacity: 0.4" transform="translate(166.755057 165.773679) scale(0.09 -0.09)">
     <defs>
      <path id="DejaVuSans-31" d="M 794 531 
L 1825 531 
L 1825 4091 
L 703 3866 
L 703 4441 
L 1819 4666 
L 2450 4666 
L 2450 531 
L 3481 531 
L 3481 0 
L 794 0 
L 794 531 
z
" transform="scale(0.015625)"/>
     </defs>
     <use xlink:href="#DejaVuSans-31"/>
    </g>
   </g>
   <g id="text_3">
    <g id="patch_8">
     <path d="M 133.39142 168.995398 
L 139.11767 168.995398 
Q 140.46767 168.995398 140.46767 167.645398 
L 140.46767 158.935085 
Q 140.46767 157.585085 139.11767 157.585085 
L 133.39142 157.585085 
Q 132.04142 157.585085 132.04142 158.935085 
L 132.04142 167.645398 
Q 132.04142 168.995398 133.39142 168.995398 
z
" style="fill: #ffffff; opacity: 0.3"/>
    </g>
    <!-- 2 -->
    <g style="opacity: 0.4" transform="translate(133.39142 165.773679) scale(0.09 -0.09)">
     <use xlink:href="#DejaVuSans-32"/>
    </g>
   </g>
   <g id="text_4">
    <g id="patch_9">
     <path d="M 166.755057 140.631761 
L 172.481307 140.631761 
Q 173.831307 140.631761 173.831307 139.281761 
L 173.831307 130.571449 
Q 173.831307 129.221449 172.481307 129.221449 
L 166.755057 129.221449 
Q 165.405057 129.221449 165.405057 130.571449 
L 165.405057 139.281761 
Q 165.405057 140.631761 166.755057 140.631761 
z
" style="fill: #ffffff; opacity: 0.3"/>
    </g>
    <!-- 3 -->
    <g style="opacity: 0.4" transform="translate(166.755057 137.410043) scale(0.09 -0.09)">
     <defs>
      <path id="DejaVuSans-33" d="M 2597 2516 
Q 3050 2419 3304 2112 
Q 3559 1806 3559 1356 
Q 3559 666 3084 287 
Q 2609 -91 1734 -91 
Q 1441 -91 1130 -33 
Q 819 25 488 141 
L 488 750 
Q 750 597 1062 519 
Q 1375 441 1716 441 
Q 2309 441 2620 675 
Q 2931 909 2931 1356 
Q 2931 1769 2642 2001 
Q 2353 2234 1838 2234 
L 1294 2234 
L 1294 2753 
L 1863 2753 
Q 2328 2753 2575 2939 
Q 2822 3125 2822 3475 
Q 2822 3834 2567 4026 
Q 2313 4219 1838 4219 
Q 1578 4219 1281 4162 
Q 984 4106 628 3988 
L 628 4550 
Q 988 4650 1302 4700 
Q 1616 4750 1894 4750 
Q 2613 4750 3031 4423 
Q 3450 4097 3450 3541 
Q 3450 3153 3228 2886 
Q 3006 2619 2597 2516 
z
" transform="scale(0.015625)"/>
     </defs>
     <use xlink:href="#DejaVuSans-33"/>
    </g>
   </g>
   <g id="text_5">
    <g id="patch_10">
     <path d="M 190.118693 168.995398 
L 195.844943 168.995398 
Q 197.194943 168.995398 197.194943 167.645398 
L 197.194943 158.935085 
Q 197.194943 157.585085 195.844943 157.585085 
L 190.118693 157.585085 
Q 188.768693 157.585085 188.768693 158.935085 
L 188.768693 167.645398 
Q 188.768693 168.995398 190.118693 168.995398 
z
" style="fill: #ffffff; opacity: 0.3"/>
    </g>
    <!-- 4 -->
    <g style="opacity: 0.4" transform="translate(190.118693 165.773679) scale(0.09 -0.09)">
     <defs>
      <path id="DejaVuSans-34" d="M 2419 4116 
L 825 1625 
L 2419 1625 
L 2419 4116 
z
M 2253 4666 
L 3047 4666 
L 3047 1625 
L 3713 1625 
L 3713 1100 
L 3047 1100 
L 3047 0 
L 2419 0 
L 2419 1100 
L 313 1100 
L 313 1709 
L 2253 4666 
z
" transform="scale(0.015625)"/>
     </defs>
     <use xlink:href="#DejaVuSans-34"/>
    </g>
   </g>
   <g id="text_6">
    <g id="patch_11">
     <path d="M 218.48233 168.995398 
L 224.20858 168.995398 
Q 225.55858 168.995398 225.55858 167.645398 
L 225.55858 158.935085 
Q 225.55858 157.585085 224.20858 157.585085 
L 218.48233 157.585085 
Q 217.13233 157.585085 217.13233 158.935085 
L 217.13233 167.645398 
Q 217.13233 168.995398 218.48233 168.995398 
z
" style="fill: #ffffff; opacity: 0.3"/>
    </g>
    <!-- 5 -->
    <g style="opacity: 0.4" transform="translate(218.48233 165.773679) scale(0.09 -0.09)">
     <defs>
      <path id="DejaVuSans-35" d="M 691 4666 
L 3169 4666 
L 3169 4134 
L 1269 4134 
L 1269 2991 
Q 1406 3038 1543 3061 
Q 1681 3084 1819 3084 
Q 2600 3084 3056 2656 
Q 3513 2228 3513 1497 
Q 3513 744 3044 326 
Q 2575 -91 1722 -91 
Q 1428 -91 1123 -41 
Q 819 9 494 109 
L 494 744 
Q 775 591 1075 516 
Q 1375 441 1709 441 
Q 2250 441 2565 725 
Q 2881 1009 2881 1497 
Q 2881 1984 2565 2268 
Q 2250 2553 1709 2553 
Q 1456 2553 1204 2497 
Q 953 2441 691 2322 
L 691 4666 
z
" transform="scale(0.015625)"/>
     </defs>
     <use xlink:href="#DejaVuSans-35"/>
    </g>
   </g>
   <g id="text_7">
    <g id="patch_12">
     <path d="M 190.118693 140.631761 
L 195.844943 140.631761 
Q 197.194943 140.631761 197.194943 139.281761 
L 197.194943 130.571449 
Q 197.194943 129.221449 195.844943 129.221449 
L 190.118693 129.221449 
Q 188.768693 129.221449 188.768693 130.571449 
L 188.768693 139.281761 
Q 188.768693 140.631761 190.118693 140.631761 
z
" style="fill: #ffffff; opacity: 0.3"/>
    </g>
    <!-- 6 -->
    <g style="opacity: 0.4" transform="translate(190.118693 137.410043) scale(0.09 -0.09)">
     <defs>
      <path id="DejaVuSans-36" d="M 2113 2584 
Q 1688 2584 1439 2293 
Q 1191 2003 1191 1497 
Q 1191 994 1439 701 
Q 1688 409 2113 409 
Q 2538 409 2786 701 
Q 3034 994 3034 1497 
Q 3034 2003 2786 2293 
Q 2538 2584 2113 2584 
z
M 3366 4563 
L 3366 3988 
Q 3128 4100 2886 4159 
Q 2644 4219 2406 4219 
Q 1781 4219 1451 3797 
Q 1122 3375 1075 2522 
Q 1259 2794 1537 2939 
Q 1816 3084 2150 3084 
Q 2853 3084 3261 2657 
Q 3669 2231 3669 1497 
Q 3669 778 3244 343 
Q 2819 -91 2113 -91 
Q 1303 -91 875 529 
Q 447 1150 447 2328 
Q 447 3434 972 4092 
Q 1497 4750 2381 4750 
Q 2619 4750 2861 4703 
Q 3103 4656 3366 4563 
z
" transform="scale(0.015625)"/>
     </defs>
     <use xlink:href="#DejaVuSans-36"/>
    </g>
   </g>
   <g id="text_8">
    <g id="patch_13">
     <path d="M 161.755057 112.268125 
L 167.481307 112.268125 
Q 168.831307 112.268125 168.831307 110.918125 
L 168.831307 102.207813 
Q 168.831307 100.857813 167.481307 100.857813 
L 161.755057 100.857813 
Q 160.405057 100.857813 160.405057 102.207813 
L 160.405057 110.918125 
Q 160.405057 112.268125 161.755057 112.268125 
z
" style="fill: #ffffff; opacity: 0.3"/>
    </g>
    <!-- 7 -->
    <g style="opacity: 0.4" transform="translate(161.755057 109.046406) scale(0.09 -0.09)">
     <defs>
      <path id="DejaVuSans-37" d="M 525 4666 
L 3525 4666 
L 3525 4397 
L 1831 0 
L 1172 0 
L 2766 4134 
L 525 4134 
L 525 4666 
z
" transform="scale(0.015625)"/>
     </defs>
     <use xlink:href="#DejaVuSans-37"/>
    </g>
   </g>
   <g id="text_9">
    <g id="patch_14">
     <path d="M 133.39142 140.631761 
L 139.11767 140.631761 
Q 140.46767 140.631761 140.46767 139.281761 
L 140.46767 130.571449 
Q 140.46767 129.221449 139.11767 129.221449 
L 133.39142 129.221449 
Q 132.04142 129.221449 132.04142 130.571449 
L 132.04142 139.281761 
Q 132.04142 140.631761 133.39142 140.631761 
z
" style="fill: #ffffff; opacity: 0.3"/>
    </g>
    <!-- 8 -->
    <g style="opacity: 0.4" transform="translate(133.39142 137.410043) scale(0.09 -0.09)">
     <defs>
      <path id="DejaVuSans-38" d="M 2034 2216 
Q 1584 2216 1326 1975 
Q 1069 1734 1069 1313 
Q 1069 891 1326 650 
Q 1584 409 2034 409 
Q 2484 409 2743 651 
Q 3003 894 3003 1313 
Q 3003 1734 2745 1975 
Q 2488 2216 2034 2216 
z
M 1403 2484 
Q 997 2584 770 2862 
Q 544 3141 544 3541 
Q 544 4100 942 4425 
Q 1341 4750 2034 4750 
Q 2731 4750 3128 4425 
Q 3525 4100 3525 3541 
Q 3525 3141 3298 2862 
Q 3072 2584 2669 2484 
Q 3125 2378 3379 2068 
Q 3634 1759 3634 1313 
Q 3634 634 3220 271 
Q 2806 -91 2034 -91 
Q 1263 -91 848 271 
Q 434 634 434 1313 
Q 434 1759 690 2068 
Q 947 2378 1403 2484 
z
M 1172 3481 
Q 1172 3119 1398 2916 
Q 1625 2713 2034 2713 
Q 2441 2713 2670 2916 
Q 2900 3119 2900 3481 
Q 2900 3844 2670 4047 
Q 2441 4250 2034 4250 
Q 1625 4250 1398 4047 
Q 1172 3844 1172 3481 
z
" transform="scale(0.015625)"/>
     </defs>
     <use xlink:href="#DejaVuSans-38"/>
    </g>
   </g>
   <g id="text_10">
    <g id="patch_15">
     <path d="M 105.027784 168.995398 
L 110.754034 168.995398 
Q 112.104034 168.995398 112.104034 167.645398 
L 112.104034 158.935085 
Q 112.104034 157.585085 110.754034 157.585085 
L 105.027784 157.585085 
Q 103.677784 157.585085 103.677784 158.935085 
L 103.677784 167.645398 
Q 103.677784 168.995398 105.027784 168.995398 
z
" style="fill: #ffffff; opacity: 0.3"/>
    </g>
    <!-- 9 -->
    <g style="opacity: 0.4" transform="translate(105.027784 165.773679) scale(0.09 -0.09)">
     <defs>
      <path id="DejaVuSans-39" d="M 703 97 
L 703 672 
Q 941 559 1184 500 
Q 1428 441 1663 441 
Q 2288 441 2617 861 
Q 2947 1281 2994 2138 
Q 2813 1869 2534 1725 
Q 2256 1581 1919 1581 
Q 1219 1581 811 2004 
Q 403 2428 403 3163 
Q 403 3881 828 4315 
Q 1253 4750 1959 4750 
Q 2769 4750 3195 4129 
Q 3622 3509 3622 2328 
Q 3622 1225 3098 567 
Q 2575 -91 1691 -91 
Q 1453 -91 1209 -44 
Q 966 3 703 97 
z
M 1959 2075 
Q 2384 2075 2632 2365 
Q 2881 2656 2881 3163 
Q 2881 3666 2632 3958 
Q 2384 4250 1959 4250 
Q 1534 4250 1286 3958 
Q 1038 3666 1038 3163 
Q 1038 2656 1286 2365 
Q 1534 2075 1959 2075 
z
" transform="scale(0.015625)"/>
     </defs>
     <use xlink:href="#DejaVuSans-39"/>
    </g>
   </g>
   <g id="text_11">
    <g id="patch_16">
     <path d="M 73.801023 168.995398 
L 85.253523 168.995398 
Q 86.603523 168.995398 86.603523 167.645398 
L 86.603523 158.935085 
Q 86.603523 157.585085 85.253523 157.585085 
L 73.801023 157.585085 
Q 72.451023 157.585085 72.451023 158.935085 
L 72.451023 167.645398 
Q 72.451023 168.995398 73.801023 168.995398 
z
" style="fill: #ffffff; opacity: 0.3"/>
    </g>
    <!-- 10 -->
    <g style="opacity: 0.4" transform="translate(73.801023 165.773679) scale(0.09 -0.09)">
     <defs>
      <path id="DejaVuSans-30" d="M 2034 4250 
Q 1547 4250 1301 3770 
Q 1056 3291 1056 2328 
Q 1056 1369 1301 889 
Q 1547 409 2034 409 
Q 2525 409 2770 889 
Q 3016 1369 3016 2328 
Q 3016 3291 2770 3770 
Q 2525 4250 2034 4250 
z
M 2034 4750 
Q 2819 4750 3233 4129 
Q 3647 3509 3647 2328 
Q 3647 1150 3233 529 
Q 2819 -91 2034 -91 
Q 1250 -91 836 529 
Q 422 1150 422 2328 
Q 422 3509 836 4129 
Q 1250 4750 2034 4750 
z
" transform="scale(0.015625)"/>
     </defs>
     <use xlink:href="#DejaVuSans-31"/>
     <use xlink:href="#DejaVuSans-30" x="63.623047"/>
    </g>
   </g>
   <g id="text_12">
    <g id="patch_17">
     <path d="M 102.164659 140.631761 
L 113.617159 140.631761 
Q 114.967159 140.631761 114.967159 139.281761 
L 114.967159 130.571449 
Q 114.967159 129.221449 113.617159 129.221449 
L 102.164659 129.221449 
Q 100.814659 129.221449 100.814659 130.571449 
L 100.814659 139.281761 
Q 100.814659 140.631761 102.164659 140.631761 
z
" style="fill: #ffffff; opacity: 0.3"/>
    </g>
    <!-- 11 -->
    <g style="opacity: 0.4" transform="translate(102.164659 137.410043) scale(0.09 -0.09)">
     <use xlink:href="#DejaVuSans-31"/>
     <use xlink:href="#DejaVuSans-31" x="63.623047"/>
    </g>
   </g>
   <g id="text_13">
    <g id="patch_18">
     <path d="M 129.992514 112.268125 
L 142.516577 112.268125 
Q 143.866577 112.268125 143.866577 110.918125 
L 143.866577 102.207813 
Q 143.866577 100.857813 142.516577 100.857813 
L 129.992514 100.857813 
Q 128.642514 100.857813 128.642514 102.207813 
L 128.642514 110.918125 
Q 128.642514 112.268125 129.992514 112.268125 
z
" style="fill: #ffffff; opacity: 0.7"/>
    </g>
    <!-- 12 -->
    <g transform="translate(129.992514 109.046406) scale(0.09 -0.09)">
     <defs>
      <path id="DejaVuSans-Bold-31" d="M 750 831 
L 1813 831 
L 1813 3847 
L 722 3622 
L 722 4441 
L 1806 4666 
L 2950 4666 
L 2950 831 
L 4013 831 
L 4013 0 
L 750 0 
L 750 831 
z
" transform="scale(0.015625)"/>
      <path id="DejaVuSans-Bold-32" d="M 1844 884 
L 3897 884 
L 3897 0 
L 506 0 
L 506 884 
L 2209 2388 
Q 2438 2594 2547 2791 
Q 2656 2988 2656 3200 
Q 2656 3528 2436 3728 
Q 2216 3928 1850 3928 
Q 1569 3928 1234 3808 
Q 900 3688 519 3450 
L 519 4475 
Q 925 4609 1322 4679 
Q 1719 4750 2100 4750 
Q 2938 4750 3402 4381 
Q 3866 4013 3866 3353 
Q 3866 2972 3669 2642 
Q 3472 2313 2841 1759 
L 1844 884 
z
" transform="scale(0.015625)"/>
     </defs>
     <use xlink:href="#DejaVuSans-Bold-31"/>
     <use xlink:href="#DejaVuSans-Bold-32" x="69.580078"/>
    </g>
   </g>
   <g id="text_14">
    <g id="patch_19">
     <path d="M 158.891932 83.904489 
L 170.344432 83.904489 
Q 171.694432 83.904489 171.694432 82.554489 
L 171.694432 73.844176 
Q 171.694432 72.494176 170.344432 72.494176 
L 158.891932 72.494176 
Q 157.541932 72.494176 157.541932 73.844176 
L 157.541932 82.554489 
Q 157.541932 83.904489 158.891932 83.904489 
z
" style="fill: #ffffff; opacity: 0.3"/>
    </g>
    <!-- 13 -->
    <g style="opacity: 0.4" transform="translate(158.891932 80.68277) scale(0.09 -0.09)">
     <use xlink:href="#DejaVuSans-31"/>
     <use xlink:href="#DejaVuSans-33" x="63.623047"/>
    </g>
   </g>
   <g id="text_15">
    <g id="patch_20">
     <path d="M 187.255568 112.268125 
L 198.708068 112.268125 
Q 200.058068 112.268125 200.058068 110.918125 
L 200.058068 102.207813 
Q 200.058068 100.857813 198.708068 100.857813 
L 187.255568 100.857813 
Q 185.905568 100.857813 185.905568 102.207813 
L 185.905568 110.918125 
Q 185.905568 112.268125 187.255568 112.268125 
z
" style="fill: #ffffff; opacity: 0.3"/>
    </g>
    <!-- 14 -->
    <g style="opacity: 0.4" transform="translate(187.255568 109.046406) scale(0.09 -0.09)">
     <use xlink:href="#DejaVuSans-31"/>
     <use xlink:href="#DejaVuSans-34" x="63.623047"/>
    </g>
   </g>
   <g id="text_16">
    <g id="patch_21">
     <path d="M 215.619205 140.631761 
L 227.071705 140.631761 
Q 228.421705 140.631761 228.421705 139.281761 
L 228.421705 130.571449 
Q 228.421705 129.221449 227.071705 129.221449 
L 215.619205 129.221449 
Q 214.269205 129.221449 214.269205 130.571449 
L 214.269205 139.281761 
Q 214.269205 140.631761 215.619205 140.631761 
z
" style="fill: #ffffff; opacity: 0.3"/>
    </g>
    <!-- 15 -->
    <g style="opacity: 0.4" transform="translate(215.619205 137.410043) scale(0.09 -0.09)">
     <use xlink:href="#DejaVuSans-31"/>
     <use xlink:href="#DejaVuSans-35" x="63.623047"/>
    </g>
   </g>
   <g id="line2d_23">
    <path d="M 136.254545 115.918125 
" clip-path="url(#p94a28856c0)" style="fill: none; stroke: #ff0000; stroke-width: 1.5; stroke-linecap: square"/>
    <defs>
     <path id="m726f69bc06" d="M 0 6 
C 1.591219 6 3.117479 5.367802 4.242641 4.242641 
C 5.367802 3.117479 6 1.591219 6 0 
C 6 -1.591219 5.367802 -3.117479 4.242641 -4.242641 
C 3.117479 -5.367802 1.591219 -6 0 -6 
C -1.591219 -6 -3.117479 -5.367802 -4.242641 -4.242641 
C -5.367802 -3.117479 -6 -1.591219 -6 0 
C -6 1.591219 -5.367802 3.117479 -4.242641 4.242641 
C -3.117479 5.367802 -1.591219 6 0 6 
z
" style="stroke: #000000"/>
    </defs>
    <g clip-path="url(#p94a28856c0)">
     <use xlink:href="#m726f69bc06" x="136.254545" y="115.918125" style="fill: #ff0000; stroke: #000000"/>
    </g>
   </g>
   <g id="line2d_24">
    <path d="M 164.618182 201.009034 
" clip-path="url(#p94a28856c0)" style="fill: none; stroke: #ff0000; stroke-width: 1.5; stroke-linecap: square"/>
    <g clip-path="url(#p94a28856c0)">
     <use xlink:href="#m726f69bc06" x="164.618182" y="201.009034" style="fill: #ff0000; stroke: #000000"/>
    </g>
   </g>
  </g>
  <g id="axes_2">
   <g id="table_1">
    <g id="patch_22">
     <path d="M 393.6 37.107735 
L 479.4 37.107735 
L 479.4 22.318125 
L 393.6 22.318125 
z
" style="fill: #f2f2f2; stroke: #000000; stroke-linejoin: miter"/>
    </g>
    <g id="text_17">
     <!-- d -->
     <g transform="translate(433.325781 32.472305) scale(0.1 -0.1)">
      <defs>
       <path id="DejaVuSans-64" d="M 2906 2969 
L 2906 4863 
L 3481 4863 
L 3481 0 
L 2906 0 
L 2906 525 
Q 2725 213 2448 61 
Q 2172 -91 1784 -91 
Q 1150 -91 751 415 
Q 353 922 353 1747 
Q 353 2572 751 3078 
Q 1150 3584 1784 3584 
Q 2172 3584 2448 3432 
Q 2725 3281 2906 2969 
z
M 947 1747 
Q 947 1113 1208 752 
Q 1469 391 1925 391 
Q 2381 391 2643 752 
Q 2906 1113 2906 1747 
Q 2906 2381 2643 2742 
Q 2381 3103 1925 3103 
Q 1469 3103 1208 2742 
Q 947 2381 947 1747 
z
" transform="scale(0.015625)"/>
      </defs>
      <use xlink:href="#DejaVuSans-64"/>
     </g>
    </g>
    <g id="patch_23">
     <path d="M 479.4 37.107735 
L 565.2 37.107735 
L 565.2 22.318125 
L 479.4 22.318125 
z
" style="fill: #f2f2f2; stroke: #000000; stroke-linejoin: miter"/>
    </g>
    <g id="text_18">
     <!-- Wire length -->
     <g transform="translate(493.533594 32.472305) scale(0.1 -0.1)">
      <defs>
       <path id="DejaVuSans-57" d="M 213 4666 
L 850 4666 
L 1831 722 
L 2809 4666 
L 3519 4666 
L 4500 722 
L 5478 4666 
L 6119 4666 
L 4947 0 
L 4153 0 
L 3169 4050 
L 2175 0 
L 1381 0 
L 213 4666 
z
" transform="scale(0.015625)"/>
       <path id="DejaVuSans-69" d="M 603 3500 
L 1178 3500 
L 1178 0 
L 603 0 
L 603 3500 
z
M 603 4863 
L 1178 4863 
L 1178 4134 
L 603 4134 
L 603 4863 
z
" transform="scale(0.015625)"/>
       <path id="DejaVuSans-72" d="M 2631 2963 
Q 2534 3019 2420 3045 
Q 2306 3072 2169 3072 
Q 1681 3072 1420 2755 
Q 1159 2438 1159 1844 
L 1159 0 
L 581 0 
L 581 3500 
L 1159 3500 
L 1159 2956 
Q 1341 3275 1631 3429 
Q 1922 3584 2338 3584 
Q 2397 3584 2469 3576 
Q 2541 3569 2628 3553 
L 2631 2963 
z
" transform="scale(0.015625)"/>
       <path id="DejaVuSans-65" d="M 3597 1894 
L 3597 1613 
L 953 1613 
Q 991 1019 1311 708 
Q 1631 397 2203 397 
Q 2534 397 2845 478 
Q 3156 559 3463 722 
L 3463 178 
Q 3153 47 2828 -22 
Q 2503 -91 2169 -91 
Q 1331 -91 842 396 
Q 353 884 353 1716 
Q 353 2575 817 3079 
Q 1281 3584 2069 3584 
Q 2775 3584 3186 3129 
Q 3597 2675 3597 1894 
z
M 3022 2063 
Q 3016 2534 2758 2815 
Q 2500 3097 2075 3097 
Q 1594 3097 1305 2825 
Q 1016 2553 972 2059 
L 3022 2063 
z
" transform="scale(0.015625)"/>
       <path id="DejaVuSans-6c" d="M 603 4863 
L 1178 4863 
L 1178 0 
L 603 0 
L 603 4863 
z
" transform="scale(0.015625)"/>
       <path id="DejaVuSans-6e" d="M 3513 2113 
L 3513 0 
L 2938 0 
L 2938 2094 
Q 2938 2591 2744 2837 
Q 2550 3084 2163 3084 
Q 1697 3084 1428 2787 
Q 1159 2491 1159 1978 
L 1159 0 
L 581 0 
L 581 3500 
L 1159 3500 
L 1159 2956 
Q 1366 3272 1645 3428 
Q 1925 3584 2291 3584 
Q 2894 3584 3203 3211 
Q 3513 2838 3513 2113 
z
" transform="scale(0.015625)"/>
       <path id="DejaVuSans-67" d="M 2906 1791 
Q 2906 2416 2648 2759 
Q 2391 3103 1925 3103 
Q 1463 3103 1205 2759 
Q 947 2416 947 1791 
Q 947 1169 1205 825 
Q 1463 481 1925 481 
Q 2391 481 2648 825 
Q 2906 1169 2906 1791 
z
M 3481 434 
Q 3481 -459 3084 -895 
Q 2688 -1331 1869 -1331 
Q 1566 -1331 1297 -1286 
Q 1028 -1241 775 -1147 
L 775 -588 
Q 1028 -725 1275 -790 
Q 1522 -856 1778 -856 
Q 2344 -856 2625 -561 
Q 2906 -266 2906 331 
L 2906 616 
Q 2728 306 2450 153 
Q 2172 0 1784 0 
Q 1141 0 747 490 
Q 353 981 353 1791 
Q 353 2603 747 3093 
Q 1141 3584 1784 3584 
Q 2172 3584 2450 3431 
Q 2728 3278 2906 2969 
L 2906 3500 
L 3481 3500 
L 3481 434 
z
" transform="scale(0.015625)"/>
       <path id="DejaVuSans-68" d="M 3513 2113 
L 3513 0 
L 2938 0 
L 2938 2094 
Q 2938 2591 2744 2837 
Q 2550 3084 2163 3084 
Q 1697 3084 1428 2787 
Q 1159 2491 1159 1978 
L 1159 0 
L 581 0 
L 581 4863 
L 1159 4863 
L 1159 2956 
Q 1366 3272 1645 3428 
Q 1925 3584 2291 3584 
Q 2894 3584 3203 3211 
Q 3513 2838 3513 2113 
z
" transform="scale(0.015625)"/>
      </defs>
      <use xlink:href="#DejaVuSans-57"/>
      <use xlink:href="#DejaVuSans-69" x="96.626953"/>
      <use xlink:href="#DejaVuSans-72" x="124.410156"/>
      <use xlink:href="#DejaVuSans-65" x="163.273438"/>
      <use xlink:href="#DejaVuSans-20" x="224.796875"/>
      <use xlink:href="#DejaVuSans-6c" x="256.583984"/>
      <use xlink:href="#DejaVuSans-65" x="284.367188"/>
      <use xlink:href="#DejaVuSans-6e" x="345.890625"/>
      <use xlink:href="#DejaVuSans-67" x="409.269531"/>
      <use xlink:href="#DejaVuSans-74" x="472.746094"/>
      <use xlink:href="#DejaVuSans-68" x="511.955078"/>
     </g>
    </g>
    <g id="patch_24">
     <path d="M 393.6 51.897346 
L 479.4 51.897346 
L 479.4 37.107735 
L 393.6 37.107735 
z
" style="fill: #ffffff; stroke: #000000; stroke-linejoin: miter"/>
    </g>
    <g id="text_19">
     <!-- 1 -->
     <g transform="translate(433.31875 47.261916) scale(0.1 -0.1)">
      <use xlink:href="#DejaVuSans-31"/>
     </g>
    </g>
    <g id="patch_25">
     <path d="M 479.4 51.897346 
L 565.2 51.897346 
L 565.2 37.107735 
L 479.4 37.107735 
z
" style="fill: #ffffff; stroke: #000000; stroke-linejoin: miter"/>
    </g>
    <g id="text_20">
     <!-- 1 -->
     <g transform="translate(519.11875 47.261916) scale(0.1 -0.1)">
      <use xlink:href="#DejaVuSans-31"/>
     </g>
    </g>
    <g id="patch_26">
     <path d="M 393.6 66.686956 
L 479.4 66.686956 
L 479.4 51.897346 
L 393.6 51.897346 
z
" style="fill: #ffffff; stroke: #000000; stroke-linejoin: miter"/>
    </g>
    <g id="text_21">
     <!-- 2 -->
     <g transform="translate(433.31875 62.051526) scale(0.1 -0.1)">
      <use xlink:href="#DejaVuSans-32"/>
     </g>
    </g>
    <g id="patch_27">
     <path d="M 479.4 66.686956 
L 565.2 66.686956 
L 565.2 51.897346 
L 479.4 51.897346 
z
" style="fill: #ffffff; stroke: #000000; stroke-linejoin: miter"/>
    </g>
    <g id="text_22">
     <!-- 2 -->
     <g transform="translate(519.11875 62.051526) scale(0.1 -0.1)">
      <use xlink:href="#DejaVuSans-32"/>
     </g>
    </g>
    <g id="patch_28">
     <path d="M 393.6 81.476567 
L 479.4 81.476567 
L 479.4 66.686956 
L 393.6 66.686956 
z
" style="fill: #ffffff; stroke: #000000; stroke-linejoin: miter"/>
    </g>
    <g id="text_23">
     <!-- 3 -->
     <g transform="translate(433.31875 76.841136) scale(0.1 -0.1)">
      <use xlink:href="#DejaVuSans-33"/>
     </g>
    </g>
    <g id="patch_29">
     <path d="M 479.4 81.476567 
L 565.2 81.476567 
L 565.2 66.686956 
L 479.4 66.686956 
z
" style="fill: #ffffff; stroke: #000000; stroke-linejoin: miter"/>
    </g>
    <g id="text_24">
     <!-- 2 -->
     <g transform="translate(519.11875 76.841136) scale(0.1 -0.1)">
      <use xlink:href="#DejaVuSans-32"/>
     </g>
    </g>
    <g id="patch_30">
     <path d="M 393.6 96.266177 
L 479.4 96.266177 
L 479.4 81.476567 
L 393.6 81.476567 
z
" style="fill: #ffffff; stroke: #000000; stroke-linejoin: miter"/>
    </g>
    <g id="text_25">
     <!-- 4 -->
     <g transform="translate(433.31875 91.630747) scale(0.1 -0.1)">
      <use xlink:href="#DejaVuSans-34"/>
     </g>
    </g>
    <g id="patch_31">
     <path d="M 479.4 96.266177 
L 565.2 96.266177 
L 565.2 81.476567 
L 479.4 81.476567 
z
" style="fill: #ffffff; stroke: #000000; stroke-linejoin: miter"/>
    </g>
    <g id="text_26">
     <!-- 2 -->
     <g transform="translate(519.11875 91.630747) scale(0.1 -0.1)">
      <use xlink:href="#DejaVuSans-32"/>
     </g>
    </g>
    <g id="patch_32">
     <path d="M 393.6 111.055787 
L 479.4 111.055787 
L 479.4 96.266177 
L 393.6 96.266177 
z
" style="fill: #ffffff; stroke: #000000; stroke-linejoin: miter"/>
    </g>
    <g id="text_27">
     <!-- 5 -->
     <g transform="translate(433.31875 106.420357) scale(0.1 -0.1)">
      <use xlink:href="#DejaVuSans-35"/>
     </g>
    </g>
    <g id="patch_33">
     <path d="M 479.4 111.055787 
L 565.2 111.055787 
L 565.2 96.266177 
L 479.4 96.266177 
z
" style="fill: #ffffff; stroke: #000000; stroke-linejoin: miter"/>
    </g>
    <g id="text_28">
     <!-- 3 -->
     <g transform="translate(519.11875 106.420357) scale(0.1 -0.1)">
      <use xlink:href="#DejaVuSans-33"/>
     </g>
    </g>
    <g id="patch_34">
     <path d="M 393.6 125.845398 
L 479.4 125.845398 
L 479.4 111.055787 
L 393.6 111.055787 
z
" style="fill: #ffffff; stroke: #000000; stroke-linejoin: miter"/>
    </g>
    <g id="text_29">
     <!-- 6 -->
     <g transform="translate(433.31875 121.209968) scale(0.1 -0.1)">
      <use xlink:href="#DejaVuSans-36"/>
     </g>
    </g>
    <g id="patch_35">
     <path d="M 479.4 125.845398 
L 565.2 125.845398 
L 565.2 111.055787 
L 479.4 111.055787 
z
" style="fill: #ffffff; stroke: #000000; stroke-linejoin: miter"/>
    </g>
    <g id="text_30">
     <!-- 3 -->
     <g transform="translate(519.11875 121.209968) scale(0.1 -0.1)">
      <use xlink:href="#DejaVuSans-33"/>
     </g>
    </g>
    <g id="patch_36">
     <path d="M 393.6 140.635008 
L 479.4 140.635008 
L 479.4 125.845398 
L 393.6 125.845398 
z
" style="fill: #ffffff; stroke: #000000; stroke-linejoin: miter"/>
    </g>
    <g id="text_31">
     <!-- 7 -->
     <g transform="translate(433.31875 135.999578) scale(0.1 -0.1)">
      <use xlink:href="#DejaVuSans-37"/>
     </g>
    </g>
    <g id="patch_37">
     <path d="M 479.4 140.635008 
L 565.2 140.635008 
L 565.2 125.845398 
L 479.4 125.845398 
z
" style="fill: #ffffff; stroke: #000000; stroke-linejoin: miter"/>
    </g>
    <g id="text_32">
     <!-- 3 -->
     <g transform="translate(519.11875 135.999578) scale(0.1 -0.1)">
      <use xlink:href="#DejaVuSans-33"/>
     </g>
    </g>
    <g id="patch_38">
     <path d="M 393.6 155.424619 
L 479.4 155.424619 
L 479.4 140.635008 
L 393.6 140.635008 
z
" style="fill: #ffffff; stroke: #000000; stroke-linejoin: miter"/>
    </g>
    <g id="text_33">
     <!-- 8 -->
     <g transform="translate(433.31875 150.789188) scale(0.1 -0.1)">
      <use xlink:href="#DejaVuSans-38"/>
     </g>
    </g>
    <g id="patch_39">
     <path d="M 479.4 155.424619 
L 565.2 155.424619 
L 565.2 140.635008 
L 479.4 140.635008 
z
" style="fill: #ffffff; stroke: #000000; stroke-linejoin: miter"/>
    </g>
    <g id="text_34">
     <!-- 3 -->
     <g transform="translate(519.11875 150.789188) scale(0.1 -0.1)">
      <use xlink:href="#DejaVuSans-33"/>
     </g>
    </g>
    <g id="patch_40">
     <path d="M 393.6 170.214229 
L 479.4 170.214229 
L 479.4 155.424619 
L 393.6 155.424619 
z
" style="fill: #ffffff; stroke: #000000; stroke-linejoin: miter"/>
    </g>
    <g id="text_35">
     <!-- 9 -->
     <g transform="translate(433.31875 165.578799) scale(0.1 -0.1)">
      <use xlink:href="#DejaVuSans-39"/>
     </g>
    </g>
    <g id="patch_41">
     <path d="M 479.4 170.214229 
L 565.2 170.214229 
L 565.2 155.424619 
L 479.4 155.424619 
z
" style="fill: #ffffff; stroke: #000000; stroke-linejoin: miter"/>
    </g>
    <g id="text_36">
     <!-- 3 -->
     <g transform="translate(519.11875 165.578799) scale(0.1 -0.1)">
      <use xlink:href="#DejaVuSans-33"/>
     </g>
    </g>
    <g id="patch_42">
     <path d="M 393.6 185.003839 
L 479.4 185.003839 
L 479.4 170.214229 
L 393.6 170.214229 
z
" style="fill: #ffffff; stroke: #000000; stroke-linejoin: miter"/>
    </g>
    <g id="text_37">
     <!-- 10 -->
     <g transform="translate(430.1375 180.368409) scale(0.1 -0.1)">
      <use xlink:href="#DejaVuSans-31"/>
      <use xlink:href="#DejaVuSans-30" x="63.623047"/>
     </g>
    </g>
    <g id="patch_43">
     <path d="M 479.4 185.003839 
L 565.2 185.003839 
L 565.2 170.214229 
L 479.4 170.214229 
z
" style="fill: #ffffff; stroke: #000000; stroke-linejoin: miter"/>
    </g>
    <g id="text_38">
     <!-- 4 -->
     <g transform="translate(519.11875 180.368409) scale(0.1 -0.1)">
      <use xlink:href="#DejaVuSans-34"/>
     </g>
    </g>
    <g id="patch_44">
     <path d="M 393.6 199.79345 
L 479.4 199.79345 
L 479.4 185.003839 
L 393.6 185.003839 
z
" style="fill: #ffffff; stroke: #000000; stroke-linejoin: miter"/>
    </g>
    <g id="text_39">
     <!-- 11 -->
     <g transform="translate(430.1375 195.158019) scale(0.1 -0.1)">
      <use xlink:href="#DejaVuSans-31"/>
      <use xlink:href="#DejaVuSans-31" x="63.623047"/>
     </g>
    </g>
    <g id="patch_45">
     <path d="M 479.4 199.79345 
L 565.2 199.79345 
L 565.2 185.003839 
L 479.4 185.003839 
z
" style="fill: #ffffff; stroke: #000000; stroke-linejoin: miter"/>
    </g>
    <g id="text_40">
     <!-- 4 -->
     <g transform="translate(519.11875 195.158019) scale(0.1 -0.1)">
      <use xlink:href="#DejaVuSans-34"/>
     </g>
    </g>
    <g id="patch_46">
     <path d="M 393.6 214.58306 
L 479.4 214.58306 
L 479.4 199.79345 
L 393.6 199.79345 
z
" style="fill: #ffcccc; stroke: #000000; stroke-linejoin: miter"/>
    </g>
    <g id="text_41">
     <!-- 12 -->
     <g transform="translate(429.542188 209.94763) scale(0.1 -0.1)">
      <use xlink:href="#DejaVuSans-Bold-31"/>
      <use xlink:href="#DejaVuSans-Bold-32" x="69.580078"/>
     </g>
    </g>
    <g id="patch_47">
     <path d="M 479.4 214.58306 
L 565.2 214.58306 
L 565.2 199.79345 
L 479.4 199.79345 
z
" style="fill: #ffcccc; stroke: #000000; stroke-linejoin: miter"/>
    </g>
    <g id="text_42">
     <!-- 4 -->
     <g transform="translate(518.821094 209.94763) scale(0.1 -0.1)">
      <defs>
       <path id="DejaVuSans-Bold-34" d="M 2356 3675 
L 1038 1722 
L 2356 1722 
L 2356 3675 
z
M 2156 4666 
L 3494 4666 
L 3494 1722 
L 4159 1722 
L 4159 850 
L 3494 850 
L 3494 0 
L 2356 0 
L 2356 850 
L 288 850 
L 288 1881 
L 2156 4666 
z
" transform="scale(0.015625)"/>
      </defs>
      <use xlink:href="#DejaVuSans-Bold-34"/>
     </g>
    </g>
    <g id="patch_48">
     <path d="M 393.6 229.37267 
L 479.4 229.37267 
L 479.4 214.58306 
L 393.6 214.58306 
z
" style="fill: #ffffff; stroke: #000000; stroke-linejoin: miter"/>
    </g>
    <g id="text_43">
     <!-- 13 -->
     <g transform="translate(430.1375 224.73724) scale(0.1 -0.1)">
      <use xlink:href="#DejaVuSans-31"/>
      <use xlink:href="#DejaVuSans-33" x="63.623047"/>
     </g>
    </g>
    <g id="patch_49">
     <path d="M 479.4 229.37267 
L 565.2 229.37267 
L 565.2 214.58306 
L 479.4 214.58306 
z
" style="fill: #ffffff; stroke: #000000; stroke-linejoin: miter"/>
    </g>
    <g id="text_44">
     <!-- 4 -->
     <g transform="translate(519.11875 224.73724) scale(0.1 -0.1)">
      <use xlink:href="#DejaVuSans-34"/>
     </g>
    </g>
   </g>
  </g>
 </g>
 <defs>
  <clipPath id="p94a28856c0">
   <rect x="7.2" y="22.318125" width="343.2" height="207.054545"/>
  </clipPath>
 </defs>
</svg>
